<svg id="visual" viewBox="0 0 960 540" width="960" height="540" xmlns="http://www.w3.org/2000/svg" xmlnsxlink="http://www.w3.org/1999/xlink" version="1.1">
    <path d="M0 346L16 346.2C32 346.3 64 346.7 96 344.3C128 342 160 337 192 332.8C224 328.7 256 325.3 288 325.8C320 326.3 352 330.7 384 339C416 347.3 448 359.7 480 366.2C512 372.7 544 373.3 576 373.7C608 374 640 374 672 373.7C704 373.3 736 372.7 768 367.8C800 363 832 354 864 349.3C896 344.7 928 344.3 944 344.2L960 344L960 541L944 541C928 541 896 541 864 541C832 541 800 541 768 541C736 541 704 541 672 541C640 541 608 541 576 541C544 541 512 541 480 541C448 541 416 541 384 541C352 541 320 541 288 541C256 541 224 541 192 541C160 541 128 541 96 541C64 541 32 541 16 541L0 541Z" fill="#e64242"></path>
    <path d="M0 337L16 339.2C32 341.3 64 345.7 96 350.8C128 356 160 362 192 365C224 368 256 368 288 364.8C320 361.7 352 355.3 384 355.8C416 356.3 448 363.7 480 371.8C512 380 544 389 576 385.7C608 382.3 640 366.7 672 356.7C704 346.7 736 342.3 768 349.2C800 356 832 374 864 380.3C896 386.7 928 381.3 944 378.7L960 376L960 541L944 541C928 541 896 541 864 541C832 541 800 541 768 541C736 541 704 541 672 541C640 541 608 541 576 541C544 541 512 541 480 541C448 541 416 541 384 541C352 541 320 541 288 541C256 541 224 541 192 541C160 541 128 541 96 541C64 541 32 541 16 541L0 541Z" fill="#ca2f2e"></path>
    <path d="M0 404L16 403.5C32 403 64 402 96 398.7C128 395.3 160 389.7 192 386.5C224 383.3 256 382.7 288 382C320 381.3 352 380.7 384 378.5C416 376.3 448 372.7 480 378.8C512 385 544 401 576 410.5C608 420 640 423 672 418.3C704 413.7 736 401.3 768 399.2C800 397 832 405 864 407.3C896 409.7 928 406.3 944 404.7L960 403L960 541L944 541C928 541 896 541 864 541C832 541 800 541 768 541C736 541 704 541 672 541C640 541 608 541 576 541C544 541 512 541 480 541C448 541 416 541 384 541C352 541 320 541 288 541C256 541 224 541 192 541C160 541 128 541 96 541C64 541 32 541 16 541L0 541Z" fill="#ae1b1b"></path>
    <path d="M0 422L16 423.3C32 424.7 64 427.3 96 424.5C128 421.7 160 413.3 192 416C224 418.7 256 432.3 288 439.8C320 447.3 352 448.7 384 442.2C416 435.7 448 421.3 480 413.5C512 405.7 544 404.3 576 406.5C608 408.7 640 414.3 672 415.5C704 416.7 736 413.3 768 417.8C800 422.3 832 434.7 864 433.7C896 432.7 928 418.3 944 411.2L960 404L960 541L944 541C928 541 896 541 864 541C832 541 800 541 768 541C736 541 704 541 672 541C640 541 608 541 576 541C544 541 512 541 480 541C448 541 416 541 384 541C352 541 320 541 288 541C256 541 224 541 192 541C160 541 128 541 96 541C64 541 32 541 16 541L0 541Z" fill="#920007"></path>
    <path d="M0 475L16 471C32 467 64 459 96 452.7C128 446.3 160 441.7 192 440.3C224 439 256 441 288 443.3C320 445.7 352 448.3 384 451.3C416 454.3 448 457.7 480 454.5C512 451.3 544 441.7 576 437.7C608 433.7 640 435.3 672 438.8C704 442.3 736 447.7 768 448.5C800 449.3 832 445.7 864 444.5C896 443.3 928 444.7 944 445.3L960 446L960 541L944 541C928 541 896 541 864 541C832 541 800 541 768 541C736 541 704 541 672 541C640 541 608 541 576 541C544 541 512 541 480 541C448 541 416 541 384 541C352 541 320 541 288 541C256 541 224 541 192 541C160 541 128 541 96 541C64 541 32 541 16 541L0 541Z" fill="#750000"></path>
    <path d="M0 471L16 470C32 469 64 467 96 465.7C128 464.3 160 463.7 192 464C224 464.3 256 465.7 288 466.3C320 467 352 467 384 465.5C416 464 448 461 480 461C512 461 544 464 576 468C608 472 640 477 672 477.3C704 477.7 736 473.3 768 470.7C800 468 832 467 864 466C896 465 928 464 944 463.5L960 463L960 541L944 541C928 541 896 541 864 541C832 541 800 541 768 541C736 541 704 541 672 541C640 541 608 541 576 541C544 541 512 541 480 541C448 541 416 541 384 541C352 541 320 541 288 541C256 541 224 541 192 541C160 541 128 541 96 541C64 541 32 541 16 541L0 541Z" fill="#590000"></path>
    <path d="M0 513L16 514.5C32 516 64 519 96 518.3C128 517.7 160 513.3 192 508.3C224 503.3 256 497.7 288 499.8C320 502 352 512 384 514.7C416 517.3 448 512.7 480 508.7C512 504.7 544 501.3 576 498.2C608 495 640 492 672 495.7C704 499.3 736 509.7 768 514.2C800 518.7 832 517.3 864 513.3C896 509.3 928 502.7 944 499.3L960 496L960 541L944 541C928 541 896 541 864 541C832 541 800 541 768 541C736 541 704 541 672 541C640 541 608 541 576 541C544 541 512 541 480 541C448 541 416 541 384 541C352 541 320 541 288 541C256 541 224 541 192 541C160 541 128 541 96 541C64 541 32 541 16 541L0 541Z" fill="#000000"></path>
</svg>